# AST/ASF file generated using VICON BodyLanguage
# -----------------------------------------------
:version 1.10
:name VICON
:units
  mass 1.0
  length 0.45
  angle deg
:documentation
   .ast/.asf automatically generated from VICON data using
   VICON BodyBuilder and BodyLanguage model FoxedUp or BRILLIANT.MOD
:root
   order TX TY TZ RX RY RZ
   axis XYZ
   position 0 0 0  
   orientation 0 0 0 
:bonedata
  begin
     id 1 
     name lhipjoint
     direction 0.54267 -0.795011 0.271047 
     length 2.39899 
     axis 0 0 0  XYZ
  end
  begin
     id 2 
     name lfemur
     direction 0.34202 -0.939693 0  
     length 7.49701  
     axis 0 0 20  XYZ
    dof rx ry rz
    limits (-160.0 20.0)
           (-70.0 70.0)
           (-60.0 70.0)
  end
  begin
     id 3 
     name ltibia
     direction 0.34202 -0.939693 0   
     length 8.1668   
     axis 0 0 20   XYZ
    dof rx
    limits (-10.0 170.0)
  end
  begin
     id 4 
     name lfoot
     direction 0.0736283 -0.202292 0.976554   
     length 2.13544   
     axis -90 7.62852e-016 20   XYZ
    dof rx rz
    limits (-45.0 90.0)
           (-70.0 20.0)
  end
  begin
     id 5 
     name ltoes
     direction 1.53557e-011 -4.22024e-011 1   
     length 1.07411   
     axis -90 7.62852e-016 20   XYZ
    dof rx
    limits (-90.0 20.0)
  end
  begin
     id 6 
     name rhipjoint
     direction -0.538061 -0.797813 0.272002   
     length 2.39057  
     axis 0 0 0  XYZ 
  end
  begin
     id 7 
     name rfemur
     direction -0.34202 -0.939693 0   
     length 7.50152   
     axis 0 0 -20   XYZ
    dof rx ry rz
    limits (-160.0 20.0)
           (-70.0 70.0)
           (-70.0 60.0)
  end
  begin
     id 8 
     name rtibia
     direction -0.34202 -0.939693 0   
     length 8.05793   
     axis 0 0 -20   XYZ
    dof rx
    limits (-10.0 170.0)
 end
 begin
     id 9 
     name rfoot
     direction -0.0765195 -0.210236 0.974652   
     length 2.28698  
     axis -90 -7.62852e-016 -20   XYZ
    dof rx rz
    limits (-45.0 90.0)
           (-20.0 70.0)
  end
  begin
     id 10 
     name rtoes
     direction -1.53542e-011 -4.21847e-011 1   
     length 1.14762   
     axis -90 -7.62852e-016 -20   XYZ
    dof rx
    limits (-90.0 20.0)
  end
  begin
     id 11 
     name lowerback
     direction -0.0217239 0.996592 -0.0795765   
     length 2.08176   
     axis 0 0 0   XYZ
    dof rx ry rz
    limits (-20.0 45.0)
           (-30.0 30.0)
           (-30.0 30.0)
  end
  begin
     id 12 
     name upperback
     direction -0.00563773 0.999651 -0.0258155   
     length 2.08898   
     axis 0 0 0   XYZ
    dof rx ry rz
    limits (-20.0 45.0)
           (-30.0 30.0)
           (-30.0 30.0)
  end
  begin
     id 13 
     name thorax
     direction 0.0032706 0.999923 0.0119599   
     length 2.0968   
     axis 0 0 0   XYZ
    dof rx ry rz
    limits (-20.0 45.0)
           (-30.0 30.0)
           (-30.0 30.0)
  end
  begin
     id 14 
     name lowerneck
     direction -0.0285886 0.99568 0.0883427   
     length 1.81272   
     axis 0 0 0   XYZ
    dof rx ry rz
    limits (-20.0 45.0)
           (-30.0 30.0)
           (-30.0 30.0)
  end
  begin
     id 15 
     name upperneck
     direction 0.0807535 0.97985 -0.18268   
     length 1.82518   
     axis 0 0 0   XYZ
    dof rx ry rz
    limits (-20.0 45.0)
           (-30.0 30.0)
           (-30.0 30.0)
  end
  begin
     id 16
     name head
     direction 0.0236605 0.997053 -0.0729767  
     length 1.84443  
     axis 0 0 0   XYZ
    dof rx ry rz
    limits (-20.0 45.0)
           (-30.0 30.0)
           (-30.0 30.0)
  end
  begin
     id 17 
     name lclavicle
     direction 0.918986 0.39378 -0.0200683  
     length 3.27822  
     axis 0 0 0   XYZ
    dof ry rz
    limits (-20.0 10.0)
           (0.0 20.0)
  end
  begin
     id 18 
     name lhumerus
     direction 1 -4.4897e-011 2.09544e-027   
     length 5.5568   
     axis 180 -30 -90   XYZ
    dof rx ry rz
    limits (-60.0 90.0)
           (-90.0 90.0)
           (-90.0 90.0)
  end
  begin
     id 19
     name lradius
     direction 1 -4.48957e-011 -1.27696e-026   
     length 3.63979   
     axis 180 -30 -90   XYZ
    dof rx
    limits (-10.0 170.0)
  end
  begin
     id 20
     name lwrist
     direction 1 -4.49001e-011 -1.49001e-026   
     length 1.8199   
     axis 9.0955e-015 90 90   XYZ
    dof ry
    limits (-180.0 0.0)
 end
  begin
     id 21 
     name lhand
     direction 1 -4.48709e-011 -2.9758e-026   
     length 0.569419   
     axis 1.90115e-014 90 90   XYZ
    dof rx rz
    limits (-90.0 90.0)
           (-45.0 45.0)
  end
  begin
     id 22 
     name lfingers
     direction 1 -4.49175e-011 -5.96505e-026   
     length 0.45908   
     axis 3.80223e-014 90 90   XYZ
    dof rx
    limits (0.0 90.0)
  end
  begin
     id 23
     name lthumb
     direction 0.707107 -6.34864e-011 0.707107   
     length 0.65915   
     axis -90 45 -3.84942e-014   XYZ
    dof rx rz
    limits (-45.0 45.0)
           (-45.0 45.0)
  end
  begin
     id 24 
     name rclavicle
     direction -0.911913 0.396426 -0.106115   
     length 3.46301  
     axis 0 0 0   XYZ 
    dof ry rz
    limits (-10.0 20.0)
           (-20.0 0.0)
  end
  begin
     id 25 
     name rhumerus
     direction -1 -4.48965e-011 7.78516e-028  
     length 5.34339   
     axis 180 30 90   XYZ
    dof rx ry rz
    limits (-90.0 60.0)
           (-90.0 90.0)
           (-90.0 90.0)
  end
  begin
     id 26 
     name rradius
     direction -1 -4.48948e-011 -5.79823e-027   
     length 3.65101   
     axis 180 30 90   XYZ
    dof rx
    limits (-10.0 170.0)
  end
  begin
     id 27 
     name rwrist
     direction -1 -4.48995e-011 -1.48996e-026   
     length 1.8255   
     axis 9.0955e-015 -90 -90   XYZ
    dof ry
    limits (-180.0 0.0)
  end
  begin
     id 28
     name rhand
     direction -1 -4.48957e-011 -2.97937e-026   
     length 0.694249   
     axis 1.90115e-014 -90 -90   XYZ
    dof rx rz
    limits (-90.0 90.0)
           (-45.0 45.0)
  end
  begin
     id 29
     name rfingers
     direction -1 -4.4898e-011 -5.95943e-026   
     length 0.559721   
     axis 3.80223e-014 -90 -90   XYZ
    dof rx
    limits (0.0 90.0)
  end
  begin
     id 30
     name rthumb
     direction -0.707107 -6.34969e-011 0.707107   
     length 0.803651   
     axis -90 -45 3.84942e-014   XYZ
    dof rx rz
    limits (-45.0 45.0)
           (-45.0 45.0)
  end
:hierarchy
  begin
    root lhipjoint rhipjoint lowerback
    lhipjoint lfemur
    lfemur ltibia
    ltibia lfoot
    lfoot ltoes
    rhipjoint rfemur
    rfemur rtibia
    rtibia rfoot
    rfoot rtoes
    lowerback upperback
    upperback thorax
    thorax lowerneck lclavicle rclavicle
    lowerneck upperneck
    upperneck head
    lclavicle lhumerus
    lhumerus lradius
    lradius lwrist
    lwrist lhand lthumb
    lhand lfingers
    rclavicle rhumerus
    rhumerus rradius
    rradius rwrist
    rwrist rhand rthumb
    rhand rfingers
  end

#!OML:ASF H:\Terrain\Walking\May29\JustinRory\rory.ASF
:FULLY-SPECIFIED
:DEGREES
325
root 6.26093 17.6259 -0.784248 -18.8189 -48.3565 23.6267
lowerback 14.0107 -3.55112 0.857306
upperback 5.8834 -4.65013 5.40132
thorax -1.21999 -2.47099 5.87911
lowerneck -3.36899 12.9222 14.5524
upperneck 12.3651 19.9355 -23.0922
head 8.30797 9.11675 -7.95654
rclavicle 3.02153e-014 2.22639e-014
rhumerus -35.1074 -18.2106 -46.6303
rradius 34.5489
rwrist -5.40306
rhand -11.9535 33.6371
rfingers 7.12502
rthumb 14.1018 4.13557
lclavicle 3.02153e-014 2.22639e-014
lhumerus -29.2554 -12.5466 76.2667
lradius 50.4827
lwrist -20.247
lhand 3.41852 9.99542
lfingers 7.12502
lthumb 28.8604 37.7831
rfemur -30.9632 5.07017 7.74038
rtibia 49.8308
rfoot -12.6993 -6.00566
rtoes 17.3258
lfemur -24.2707 1.99754 -22.6033
ltibia 41.6538
lfoot -11.5826 -5.04051
ltoes -19.2375
326
root 6.21527 17.6405 -0.670474 -17.5546 -49.1817 22.0079
lowerback 14.0564 -3.37522 1.68987
upperback 5.96171 -4.31818 5.60512
thorax -1.23647 -2.29893 5.57948
lowerneck -3.28979 12.9064 14.8534
upperneck 12.2308 19.8463 -22.9486
head 8.24435 9.10881 -7.96961
rclavicle 8.11041e-014 6.36111e-015
rhumerus -34.7214 -17.7921 -47.1556
rradius 35.4765
rwrist -6.63849
rhand -14.4017 34.0983
rfingers 7.12502
rthumb 11.7418 4.44741
lclavicle 8.11041e-014 6.36111e-015
lhumerus -29.3387 -13.0072 75.6395
lradius 50.3578
lwrist -20.305
lhand 4.02839 10.5108
lfingers 7.12502
lthumb 29.4428 38.1975
rfemur -30.7603 5.72337 9.05004
rtibia 49.9155
rfoot -12.8185 -6.48757
rtoes 17.3439
lfemur -24.1533 1.72315 -20.8942
ltibia 39.1086
lfoot -10.802 -4.19838
ltoes -8.35326
327
root 6.17218 17.6598 -0.540444 -17.2796 -49.5106 21.5341
lowerback 14.0746 -3.23132 1.78491
upperback 5.98384 -4.11806 5.61955
thorax -1.24513 -2.19855 5.51287
lowerneck -2.95627 12.879 14.9184
upperneck 12.1608 19.7728 -22.7072
head 8.11974 9.11679 -7.92683
rclavicle -7.95139e-015 6.36111e-015
rhumerus -34.3508 -16.775 -47.6729
rradius 36.564
rwrist -8.46289
rhand -15.5195 33.203
rfingers 7.12502
rthumb 10.6637 3.49364
lclavicle -7.95139e-015 6.36111e-015
lhumerus -29.4155 -13.4197 75.1399
lradius 50.1619
lwrist -19.9995
lhand 4.1955 11.7654
lfingers 7.12502
lthumb 29.6023 39.4239
rfemur -30.4533 5.64911 9.33852
rtibia 50.2579
rfoot -13.2744 -6.45957
rtoes 17.0329
lfemur -23.7125 1.12811 -20.2364
ltibia 36.6098
lfoot -10.2883 -2.5701
ltoes -9.38555
328
root 6.14894 17.6445 -0.413067 -17.646 -49.4646 22.3935
lowerback 13.9854 -3.10432 0.950301
upperback 5.80127 -4.04305 5.46913
thorax -1.3523 -2.16418 5.81515
lowerneck -2.67069 12.8892 14.6659
upperneck 12.2401 19.7811 -22.3908
head 8.02685 9.14137 -7.79425
rclavicle 1.74931e-014 3.49861e-014
rhumerus -33.7125 -15.6342 -48.0474
rradius 37.2734
rwrist -10.145
rhand -16.1598 32.651
rfingers 7.12502
rthumb 10.046 2.9108
lclavicle 1.74931e-014 3.49861e-014
lhumerus -29.5017 -13.5605 74.7087
lradius 49.8908
lwrist -19.4843
lhand 4.14265 12.5111
lfingers 7.12502
lthumb 29.5519 40.1786
rfemur -30.8374 5.16173 8.46059
rtibia 50.9091
rfoot -13.8265 -5.97804
rtoes 17.6349
lfemur -23.7079 0.696826 -20.7575
ltibia 34.1431
lfoot -9.38734 -0.314119
ltoes -11.7741
329
root 6.12414 17.6109 -0.280872 -18.3199 -49.1759 24.0293
lowerback 13.6017 -2.92517 -0.415223
upperback 5.57166 -3.9702 5.12902
thorax -1.32953 -2.13233 6.19877
lowerneck -2.73667 12.8649 14.5514
upperneck 12.4831 19.7206 -22.0274
head 8.04745 9.11041 -7.65839
rclavicle 0 0
rhumerus -33.0887 -15.1779 -48.1644
rradius 37.514
rwrist -11.0033
rhand -15.7093 33.2435
rfingers 7.12502
rthumb 10.4806 3.52473
lclavicle 0 0
lhumerus -29.4935 -13.8132 74.2042
lradius 49.7315
lwrist -19.2415
lhand 4.08554 13.0967
lfingers 7.12502
lthumb 29.4974 40.7738
rfemur -31.673 4.50276 6.95054
rtibia 51.8587
rfoot -14.1875 -5.74608
rtoes 17.6406
lfemur -23.9871 0.389145 -22.0056
ltibia 31.8909
lfoot -8.26992 2.07495
ltoes -13.4996
330
root 6.07076 17.6012 -0.127775 -18.3289 -49.2279 24.1531
lowerback 13.0875 -2.77773 -0.689257
upperback 5.60844 -3.82177 4.98609
thorax -1.02397 -2.0647 6.14375
lowerneck -2.78964 12.7788 14.4752
upperneck 12.6639 19.5379 -21.5477
head 8.01103 9.0338 -7.50835
rclavicle -1.11319e-014 2.22639e-014
rhumerus -32.7519 -15.0028 -48.137
rradius 37.856
rwrist -11.812
rhand -16.8343 33.3394
rfingers 7.12502
rthumb 9.39525 3.56882
lclavicle -1.11319e-014 2.22639e-014
lhumerus -29.3629 -14.3927 73.6634
lradius 49.6733
lwrist -18.8016
lhand 5.07965 13.9559
lfingers 7.12502
lthumb 30.4459 41.4615
rfemur -31.8602 3.88173 6.78101
rtibia 52.9893
rfoot -14.6671 -5.95372
rtoes 15.9207
lfemur -23.6612 0.215438 -22.0699
ltibia 29.9796
lfoot -6.7385 4.2081
ltoes -14.5148
331
root 6.02685 17.5741 0.00894722 -17.4373 -49.7747 22.5017
lowerback 13.1814 -2.66624 0.100875
upperback 5.73747 -3.5897 5.1801
thorax -1.00046 -1.94513 5.87218
lowerneck -2.65681 12.6492 14.4677
upperneck 12.6828 19.3082 -21.2431
head 7.9086 8.94774 -7.44855
rclavicle 6.83819e-014 9.54166e-015
rhumerus -32.5919 -14.3853 -48.181
rradius 38.4739
rwrist -13.019
rhand -19.0713 32.1779
rfingers 7.12502
rthumb 7.23635 2.3216
lclavicle 6.83819e-014 9.54166e-015
lhumerus -29.2187 -15.162 73.0723
lradius 49.6643
lwrist -17.9399
lhand 6.96694 14.6519
lfingers 7.12502
lthumb 32.2442 41.8085
rfemur -31.7277 3.88522 8.13009
rtibia 54.2334
rfoot -15.0806 -6.4181
rtoes 15.1265
lfemur -23.3081 0.213886 -20.6876
ltibia 28.9192
lfoot -4.09989 5.9662
ltoes -16.9151
